<svg fill="none" viewBox="0 0 24 24" xmlns="http://www.w3.org/2000/svg"><path clip-rule="evenodd" d="m0 1.5c0-.828427.671573-1.5 1.5-1.5h21c.8284 0 1.5.671573 1.5 1.5 0 .82843-.6716 1.5-1.5 1.5h-21c-.828427 0-1.5-.67157-1.5-1.5zm0 7c0-.82843.671573-1.5 1.5-1.5h21c.8284 0 1.5.67157 1.5 1.5s-.6716 1.5-1.5 1.5h-21c-.828427 0-1.5-.67157-1.5-1.5zm0 7c0-.8284.671573-1.5 1.5-1.5h21c.8284 0 1.5.6716 1.5 1.5s-.6716 1.5-1.5 1.5h-21c-.828427 0-1.5-.6716-1.5-1.5zm0 7c0-.8284.671573-1.5 1.5-1.5h21c.8284 0 1.5.6716 1.5 1.5s-.6716 1.5-1.5 1.5h-21c-.828427 0-1.5-.6716-1.5-1.5z" fill="#758ca3" fill-rule="evenodd"/></svg>